<?xml version="1.0" encoding="UTF-8"?>
<svg id="Layer_1" xmlns="http://www.w3.org/2000/svg" version="1.1" viewBox="0 0 1200 1200">
  <!-- Generator: Adobe Illustrator 29.6.1, SVG Export Plug-In . SVG Version: 2.1.1 Build 9)  -->
  <defs>
    <style>
      .st0 {
        fill: #ee8b22;
      }

      .st1 {
        fill: #162850;
      }
    </style>
  </defs>
  <path class="st0" d="M540.34,762.55l-106.17-94.13c48.48-68.56,38.63-164.32-25.61-221.31-68.94-61.13-174.78-54.81-235.91,14.13-61.13,68.94-54.76,174.74,14.18,235.86,64.24,57.04,160.56,55.36,222.85-.93l106.08,94.08c3.53,3.11,7.9,4.65,12.27,4.65,5.11,0,10.23-2.09,13.85-6.23,3.3-3.67,4.93-8.46,4.65-13.39-.28-4.93-2.51-9.44-6.18-12.74ZM397.03,460.21c61.5,54.53,67.12,148.89,12.64,210.34-26.45,29.75-62.85,47.46-102.54,49.83-39.7,2.37-78-10.83-107.8-37.23-29.75-26.4-47.46-62.85-49.83-102.54-2.42-39.74,10.83-78,37.23-107.8,29.38-33.14,70.38-50.02,111.56-50.02,35.14,0,70.42,12.32,98.73,37.42Z"/>
  <g>
    <g>
      <path class="st1" d="M493.6,494.57v-55.54h23.4c5.92,0,11.15,1.17,15.67,3.49,4.52,2.33,8.04,5.58,10.55,9.76,2.51,4.18,3.77,9.02,3.77,14.52s-1.26,10.34-3.77,14.52c-2.51,4.18-6.03,7.43-10.55,9.76-4.52,2.33-9.75,3.49-15.67,3.49h-23.4ZM501.53,487.66h14.99c4.6,0,8.58-.87,11.94-2.62,3.36-1.75,5.96-4.19,7.81-7.34,1.85-3.15,2.78-6.78,2.78-10.91s-.93-7.83-2.78-10.95c-1.85-3.12-4.46-5.55-7.81-7.3-3.36-1.74-7.34-2.62-11.94-2.62h-14.99v41.73Z"/>
      <path class="st1" d="M559.13,494.57v-55.54h7.93v55.54h-7.93Z"/>
      <path class="st1" d="M608.79,495.2c-4.28,0-8.23-.7-11.82-2.1-3.6-1.4-6.72-3.38-9.36-5.95-2.64-2.56-4.71-5.57-6.19-9-1.48-3.44-2.22-7.22-2.22-11.35s.74-7.91,2.22-11.35c1.48-3.44,3.56-6.44,6.23-9,2.67-2.56,5.8-4.55,9.4-5.95,3.59-1.4,7.56-2.1,11.9-2.1s8.41.71,12.06,2.14c3.65,1.43,6.74,3.57,9.28,6.43l-4.92,4.92c-2.27-2.22-4.75-3.85-7.42-4.88-2.67-1.03-5.57-1.55-8.69-1.55s-6.12.53-8.85,1.59c-2.72,1.06-5.08,2.54-7.06,4.44-1.99,1.9-3.52,4.17-4.6,6.78-1.08,2.62-1.63,5.46-1.63,8.53s.54,5.83,1.63,8.45c1.08,2.62,2.62,4.89,4.6,6.82,1.98,1.93,4.32,3.42,7.02,4.48,2.7,1.06,5.63,1.59,8.81,1.59,2.96,0,5.8-.46,8.53-1.39s5.25-2.47,7.58-4.64l4.52,6.03c-2.75,2.33-5.96,4.09-9.64,5.28-3.68,1.19-7.47,1.79-11.38,1.79ZM622.2,487.11v-20.63h7.62v21.66l-7.62-1.03Z"/>
      <path class="st1" d="M644.97,494.57v-55.54h7.93v55.54h-7.93Z"/>
      <path class="st1" d="M680.59,494.57v-48.63h-19.04v-6.9h45.93v6.9h-19.04v48.63h-7.86Z"/>
      <path class="st1" d="M704.95,494.57l25.15-55.54h7.85l25.23,55.54h-8.33l-22.45-51.09h3.17l-22.45,51.09h-8.17ZM715.66,480.68l2.14-6.35h31.26l2.3,6.35h-35.7Z"/>
      <path class="st1" d="M771.43,494.57v-55.54h7.93v48.63h30.07v6.9h-38Z"/>
      <path class="st1" d="M504.63,580.78v-48.63h-19.04v-6.9h45.93v6.9h-19.04v48.63h-7.86Z"/>
      <path class="st1" d="M540.17,580.78v-55.54h21.66c4.86,0,9.02.77,12.46,2.3,3.44,1.53,6.08,3.76,7.93,6.66,1.85,2.91,2.78,6.37,2.78,10.39s-.93,7.47-2.78,10.35c-1.85,2.88-4.49,5.09-7.93,6.62-3.44,1.53-7.59,2.3-12.46,2.3h-17.3l3.57-3.65v20.55h-7.93ZM548.1,561.03l-3.57-3.89h17.06c5.08,0,8.93-1.1,11.54-3.29,2.62-2.19,3.93-5.27,3.93-9.24s-1.31-7.03-3.93-9.2c-2.62-2.17-6.47-3.25-11.54-3.25h-17.06l3.57-3.97v32.85ZM577.3,580.78l-14.12-20.15h8.49l14.28,20.15h-8.65Z"/>
      <path class="st1" d="M589.43,580.78l25.15-55.54h7.85l25.23,55.54h-8.33l-22.45-51.09h3.17l-22.45,51.09h-8.17ZM600.15,566.9l2.14-6.35h31.26l2.3,6.35h-35.7Z"/>
      <path class="st1" d="M679.96,581.42c-4.23,0-8.13-.7-11.7-2.1-3.57-1.4-6.67-3.38-9.28-5.95-2.62-2.56-4.67-5.57-6.15-9s-2.22-7.22-2.22-11.35.74-7.91,2.22-11.35c1.48-3.44,3.54-6.44,6.19-9,2.64-2.56,5.75-4.55,9.32-5.95,3.57-1.4,7.47-2.1,11.7-2.1s8.24.73,11.86,2.18c3.62,1.46,6.7,3.61,9.24,6.47l-5.16,5c-2.12-2.22-4.5-3.87-7.14-4.96-2.64-1.08-5.47-1.63-8.49-1.63s-6.02.53-8.69,1.59c-2.67,1.06-4.99,2.54-6.94,4.44s-3.48,4.17-4.56,6.78c-1.08,2.62-1.63,5.46-1.63,8.53s.54,5.91,1.63,8.53c1.08,2.62,2.61,4.88,4.56,6.78,1.96,1.9,4.27,3.38,6.94,4.44,2.67,1.06,5.57,1.59,8.69,1.59s5.84-.54,8.49-1.63c2.64-1.08,5.03-2.76,7.14-5.04l5.16,5c-2.54,2.86-5.62,5.03-9.24,6.5-3.62,1.48-7.6,2.22-11.94,2.22Z"/>
      <path class="st1" d="M720.42,573.88h32.37v6.9h-40.3v-55.54h39.19v6.9h-31.26v41.73ZM719.71,549.21h28.56v6.74h-28.56v-6.74Z"/>
      <path class="st1" d="M757.23,580.78l25.15-55.54h7.85l25.23,55.54h-8.33l-22.45-51.09h3.17l-22.45,51.09h-8.17ZM767.94,566.9l2.14-6.35h31.26l2.3,6.35h-35.7Z"/>
      <path class="st1" d="M823.71,580.78v-55.54h24.91c6.4,0,11.32,1.28,14.76,3.85,3.44,2.57,5.16,6.07,5.16,10.51,0,3.02-.67,5.55-2.02,7.62-1.35,2.06-3.16,3.65-5.44,4.76-2.27,1.11-4.73,1.66-7.38,1.66l1.43-2.38c3.17,0,5.98.55,8.41,1.66,2.43,1.11,4.36,2.74,5.79,4.88,1.43,2.14,2.14,4.8,2.14,7.97,0,4.76-1.79,8.45-5.36,11.07-3.57,2.62-8.87,3.93-15.91,3.93h-26.5ZM831.65,574.36h18.25c4.39,0,7.75-.74,10.08-2.22,2.33-1.48,3.49-3.81,3.49-6.98s-1.17-5.58-3.49-7.06c-2.33-1.48-5.69-2.22-10.08-2.22h-18.96v-6.43h16.98c4.02,0,7.14-.74,9.36-2.22,2.22-1.48,3.33-3.7,3.33-6.66s-1.11-5.18-3.33-6.66c-2.22-1.48-5.34-2.22-9.36-2.22h-16.26v42.68Z"/>
      <path class="st1" d="M883.77,580.78v-55.54h7.93v55.54h-7.93Z"/>
      <path class="st1" d="M908.37,580.78v-55.54h7.93v48.63h30.07v6.9h-38Z"/>
      <path class="st1" d="M955.49,580.78v-55.54h7.93v55.54h-7.93Z"/>
      <path class="st1" d="M991.11,580.78v-48.63h-19.04v-6.9h45.93v6.9h-19.04v48.63h-7.86Z"/>
      <path class="st1" d="M1039.43,580.78v-21.26l1.82,4.92-23.88-39.19h8.49l20.07,33.08h-4.6l20.15-33.08h7.85l-23.8,39.19,1.74-4.92v21.26h-7.85Z"/>
      <path class="st1" d="M493.6,667v-55.54h21.66c4.86,0,9.02.77,12.46,2.3,3.44,1.53,6.08,3.76,7.93,6.66,1.85,2.91,2.78,6.37,2.78,10.39s-.93,7.47-2.78,10.35c-1.85,2.88-4.49,5.1-7.93,6.66-3.44,1.56-7.59,2.34-12.46,2.34h-17.3l3.57-3.73v20.55h-7.93ZM501.53,647.25l-3.57-3.97h17.06c5.08,0,8.93-1.08,11.54-3.25s3.93-5.24,3.93-9.2-1.31-7.03-3.93-9.2-6.47-3.25-11.54-3.25h-17.06l3.57-3.97v32.85Z"/>
      <path class="st1" d="M550.08,667v-55.54h7.93v48.63h30.07v6.9h-38Z"/>
      <path class="st1" d="M588.8,667l25.15-55.54h7.85l25.23,55.54h-8.33l-22.45-51.09h3.17l-22.45,51.09h-8.17ZM599.51,653.12l2.14-6.35h31.26l2.3,6.35h-35.7Z"/>
      <path class="st1" d="M663.53,667v-48.63h-19.04v-6.9h45.93v6.9h-19.04v48.63h-7.86Z"/>
      <path class="st1" d="M707.01,667h-7.93v-55.54h39.19v6.9h-31.26v48.63ZM706.22,637.73h28.64v6.82h-28.64v-6.82Z"/>
      <path class="st1" d="M773.89,667.64c-4.23,0-8.16-.71-11.78-2.14-3.62-1.43-6.76-3.42-9.4-5.99-2.64-2.56-4.71-5.57-6.19-9-1.48-3.44-2.22-7.19-2.22-11.27s.74-7.83,2.22-11.27c1.48-3.44,3.54-6.44,6.19-9,2.64-2.56,5.77-4.56,9.36-5.99,3.59-1.43,7.54-2.14,11.82-2.14s8.14.7,11.74,2.1c3.59,1.4,6.72,3.38,9.36,5.95,2.64,2.57,4.69,5.58,6.15,9.04,1.45,3.46,2.18,7.23,2.18,11.3s-.73,7.91-2.18,11.35c-1.45,3.44-3.51,6.44-6.15,9-2.64,2.57-5.77,4.55-9.36,5.95-3.6,1.4-7.51,2.1-11.74,2.1ZM773.81,660.58c3.12,0,5.99-.53,8.61-1.59,2.62-1.06,4.89-2.55,6.82-4.48s3.44-4.19,4.52-6.78c1.08-2.59,1.63-5.42,1.63-8.49s-.54-5.88-1.63-8.45c-1.09-2.56-2.59-4.83-4.52-6.78-1.93-1.96-4.2-3.46-6.82-4.52-2.62-1.06-5.49-1.59-8.61-1.59s-5.91.53-8.53,1.59c-2.62,1.06-4.91,2.56-6.86,4.52-1.96,1.96-3.48,4.22-4.56,6.78-1.08,2.56-1.63,5.38-1.63,8.45s.54,5.9,1.63,8.49c1.08,2.59,2.61,4.85,4.56,6.78s4.24,3.42,6.86,4.48c2.62,1.06,5.46,1.59,8.53,1.59Z"/>
      <path class="st1" d="M815.46,667v-55.54h21.66c4.86,0,9.02.77,12.46,2.3,3.44,1.53,6.08,3.76,7.93,6.66,1.85,2.91,2.78,6.37,2.78,10.39s-.93,7.47-2.78,10.35c-1.85,2.88-4.49,5.09-7.93,6.62-3.44,1.53-7.59,2.3-12.46,2.3h-17.3l3.57-3.65v20.55h-7.93ZM823.4,647.25l-3.57-3.89h17.06c5.08,0,8.93-1.1,11.54-3.29,2.62-2.19,3.93-5.27,3.93-9.24s-1.31-7.03-3.93-9.2c-2.62-2.17-6.47-3.25-11.54-3.25h-17.06l3.57-3.97v32.85ZM852.59,667l-14.12-20.15h8.49l14.28,20.15h-8.65Z"/>
      <path class="st1" d="M873.14,667v-55.54h6.51l24.91,41.97h-3.49l24.59-41.97h6.51l.08,55.54h-7.62l-.08-43.56h1.82l-21.9,36.81h-3.65l-22.06-36.81h1.98v43.56h-7.62Z"/>
    </g>
    <g>
      <path class="st1" d="M366.94,523.66v31.56c-3.87-10.04-3.87-21.56,0-31.56Z"/>
      <g>
        <path class="st0" d="M338.8,570.11c.04.93-.49,1.38-2.44,2.36-.71.31-1.38.67-1.96,1.07-2.49,1.64-4.8,3.6-6.84,5.82-9.24,10-12.4,24.58-9.51,37.82-4.53.13-9.16.18-13.64-.18-.76,0-1.24-.04-1.56-.27-.36-.4-1.47-2.36-2.13-3.51-.67-1.2-1.33-2.31-1.73-2.89-6.22-8.67-15.87-14.4-27.24-16.22-2.27-.36-4.31-.53-6.22-.58-.31,0-.71,0-.93.04-.49,0-.98.04-1.51.09-1.24.13-4.22.36-4.84-.18-.04-.04-.22-.31-.36-.98-.93-2.8-1.51-6.13-2.09-9.33-.4-2.27-.8-4.49-1.33-6.62.44-.71,2.53-1.82,3.51-2.36.67-.36,1.29-.67,1.78-.98,2.31-1.6,4.27-3.29,6.04-5.24,9.2-9.91,12.36-24.49,9.42-37.73,4.67.13,9.42.27,13.91,0,.67,0,1.16.13,1.42.44.53.67,1.24,1.91,1.87,3.11.67,1.16,1.29,2.31,1.91,3.2,6.71,9.29,17.2,15.16,29.56,16.49,1.24.13,2.53.22,3.91.27.31,0,.71,0,1.02-.04.84-.04,1.96-.13,3.02-.22.76-.04,1.47-.04,2.13,0,.76.04,1.02.13,1.02.13.04.09.27.53.67,1.87.98,3.38,3.02,11.82,3.16,14.62Z"/>
        <path class="st1" d="M394.2,573.45c-1.12-3.35-4.37-5.3-7.53-7.21-1.63-.93-3.16-1.86-4.32-2.88-2-1.86-3.81-4.18-5.16-6.74-5.58-9.95-5.53-23.52,0-33.89,2.09-3.95,4.93-7.16,8.32-9.48.84-.56,1.77-1.07,2.6-1.53,3.58-2.09,7.34-4.23,6.55-11.11-.33-3.44-2.6-13.71-3.9-17.39-.14-.33-.28-.65-.37-.79-2.79-6.41-8.97-6.18-13.95-6h-.74c-1.21.05-2.32.09-3.44,0-9.2-.6-18.27-5.39-23.57-12.6-.79-1.02-1.39-2.09-1.95-3.16-1.72-2.97-3.44-6.04-7.67-7.34l-38.16-.05-.47.05c-4.14,1.3-5.76,4.18-7.34,6.93-.47.84-.93,1.63-1.49,2.42-5.35,7.86-14.69,13.16-24.4,13.76-1.07.09-2.18.05-3.35,0h-.84c-5.21-.14-11.67-.33-14.27,6.74-1.25,3.58-3.44,13.62-3.86,17.43-.28,2.6.09,4.51.88,6.09,1.26,2.51,3.67,3.9,6,5.21,1.07.7,2.23,1.3,3.35,2.14,2.6,1.91,4.74,4.51,6.55,7.44h-8.65l-.47.09c-4.09,1.25-5.72,4.14-7.3,6.88-.46.79-.93,1.63-1.49,2.46-.93,1.35-2,2.65-3.25,3.86-5.39,5.62-13.16,9.34-21.2,9.85-1.07.09-2.18.05-3.25,0l-.93-.05c-5.16-.14-11.67-.28-14.22,6.79-1.3,3.58-3.49,13.62-3.9,17.39-.74,6.97,3.11,9.2,6.93,11.39,1.02.65,2.18,1.3,3.3,2.09,2.98,2.18,5.49,5.11,7.39,8.69,5.35,10.04,5.35,23.52,0,33.56-1.91,3.53-4.37,6.46-7.39,8.74-1.3.98-2.6,1.72-3.77,2.37-4.18,2.46-7.53,4.37-6.09,12.83.6,3.81,2.05,11.39,3.53,15.53l1.44-.6-1.3,1.07c2.65,6.74,8.65,6.55,13.99,6.46l1.02-.05c1.07-.05,2.18-.09,3.3,0,9.9.65,19.11,5.95,24.64,14.18.51.74.98,1.49,1.39,2.23,1.67,2.93,3.58,6.23,8.92,6.79,5.39-.37,11.2-.19,16.73,0,3.39.14,6.83.19,10.18.19,2.65,0,5.3,0,7.81-.19,5.9-.51,8.13-4.32,10.32-8.04.88-1.53,1.81-3.07,3.02-4.46,5.21-5.95,13.85-10.18,22.08-10.69,1.02-.09,2.18-.09,3.39,0l1.12.05c5.21.09,11.06.28,13.71-6.32.05-.19.09-.37.28-.84.79-2.42,2.6-9.72,3.53-14.64.28-1.63.42-3.02.46-3.81,0-1.16-.19-2.32-.65-3.63-1.12-3.35-4.37-5.3-7.53-7.21-1.63-.98-3.16-1.91-4.28-2.93-1.67-1.53-3.11-3.39-4.42-5.44,2.32-.05,4.6-.09,6.83-.23,5.86-.47,8.13-4.32,10.32-8.04.88-1.53,1.81-3.07,2.98-4.46,4.09-4.65,10.27-8.23,16.73-9.81,1.77-.47,3.53-.74,5.3-.88,1.12-.09,2.28-.09,3.49,0l1.12.05c5.21.14,11.06.33,13.67-6.32.09-.19.14-.37.33-.84,1.07-3.21,3.9-15.2,4-18.45,0-1.16-.23-2.32-.65-3.63ZM333.4,641.78c.46.33,1.16.7,1.81,1.02.84.47,2.37,1.21,2.74,1.81-.28,1.39-.56,2.93-.79,4.46-.05.05-.05.09-.05.14-.65,3.81-1.39,7.81-2.46,11.44-.05.28-.23.88-.37,1.07-.6.47-3.58.19-4.79.09l-1.44-.05c-.51-.05-1.02-.05-1.49-.05-2.09.09-4.04.28-5.86.56-11.3,1.77-20.92,7.58-27.19,16.18-.65.93-1.3,2.14-1.95,3.3-.6,1.16-1.3,2.32-1.81,3.02-.28.28-.6.42-1.35.42-5.11-.28-10.46-.09-15.57.05-5.62.19-11.44.37-17.11-.09-.74,0-1.21-.05-1.49-.23-.42-.42-1.53-2.37-2.18-3.53-.65-1.21-1.35-2.32-1.72-2.88-6.18-8.65-15.9-14.41-27.24-16.22-2.28-.37-4.32-.51-6.23-.56-.33,0-.74,0-.93.05-.46.05-.98.05-1.49.05-1.3.14-4.28.37-4.88-.14-.05-.05-.19-.33-.37-.98-.88-2.84-1.49-6.14-2.09-9.34-.37-2.28-.79-4.51-1.26-6.65.37-.7,2.51-1.81,3.44-2.28.7-.42,1.3-.74,1.77-1.02,2.32-1.63,4.32-3.3,6.09-5.25,13.99-15.01,14.04-40.95,0-56.57-2-2.23-4.23-4.23-6.69-5.9-.46-.37-1.16-.7-1.81-1.02-.98-.51-2.51-1.3-2.84-2l.56-3.02c.7-3.67,1.49-7.48,2.42-11.16.05-.19.14-.51.19-.84.09-.46.33-1.53.56-1.81.05-.05.47-.37,2.23-.37.79,0,1.67.05,2.51.09.6.05,1.16.09,1.58.14.46.05.98.05,1.35.05,1.26-.05,2.46-.14,3.72-.28,7.3-.84,13.99-3.21,19.62-7.11,3.81-2.51,7.07-5.67,9.81-9.34.46-.74,1.16-1.91,1.86-3.16.6-1.16,1.53-2.88,1.86-3.21.37-.28.65-.33,1.53-.37l.42-.05c2.98-.19,6.09-.23,9.25-.19,2.28,8.69,1.39,18.5-2.79,26.31-1.86,3.49-4.37,6.41-7.34,8.69-1.35.98-2.6,1.72-3.77,2.42-4.18,2.37-7.53,4.32-6.09,12.78.6,3.81,2.05,11.44,3.49,15.57l1.44-.65-1.25,1.07c2.6,6.79,8.65,6.6,13.95,6.46l1.02-.05c1.12-.05,2.23-.09,3.35,0,9.85.65,19.06,5.95,24.64,14.18.51.74.93,1.49,1.35,2.28,1.72,2.93,3.58,6.23,8.97,6.74,5.39-.37,11.16-.19,16.73,0,.42.05.79.05,1.21.05,1.67,3.63,3.86,7.07,6.6,10.09,1.91,2.18,4.14,4.14,6.65,5.81ZM274.41,530.22h.79c2.51.09,5.02.19,7.53.14.88,0,1.81,0,2.7-.05.98,0,1.95-.05,2.88-.09h.28c.56.05.93.19,1.16.46.51.65,1.26,1.91,1.86,3.11.65,1.16,1.3,2.32,1.91,3.21,6.69,9.3,17.2,15.15,29.56,16.46,1.26.14,2.51.23,3.9.28h.6c.14,0,.28,0,.42-.05.84-.05,1.95-.14,3.02-.23.51-.05,1.02-.05,1.49-.05h.14c.19,0,.37,0,.51.05.74.05,1.02.14,1.02.14.05.09.28.56.65,1.86.98,3.39,3.02,11.85,3.16,14.64.05.93-.46,1.39-2.42,2.37-.74.28-1.39.65-1.95,1.07-2.51,1.63-4.83,3.58-6.88,5.81-9.25,9.99-12.41,24.59-9.48,37.84-2.93.05-5.9.09-8.88,0-1.63,0-3.21-.09-4.79-.19-.74,0-1.25-.05-1.53-.28-.37-.42-1.49-2.37-2.14-3.53-.7-1.16-1.35-2.28-1.77-2.88-6.18-8.65-15.85-14.36-27.24-16.22-2.05-.33-3.86-.46-5.62-.56h-.56c-.33,0-.74,0-.98.05-.47,0-.98.05-1.49.09-.28.05-.65.09-1.02.09-.37.05-.79.05-1.21.05-.33,0-.65,0-.98-.05-.74,0-1.39-.09-1.63-.28-.05-.05-.23-.33-.37-.98-.93-2.79-1.49-6.14-2.09-9.34-.37-2.28-.79-4.46-1.35-6.6.47-.74,2.56-1.86,3.53-2.37.65-.37,1.3-.65,1.77-.98,2.32-1.58,4.28-3.3,6.04-5.25,9.2-9.9,12.37-24.5,9.44-37.75ZM384.95,581.03c-.7,3.81-1.35,7.86-2.42,11.44-.09.28-.28.88-.42,1.07-.6.46-3.53.23-4.83.14l-1.35-.09c-.56-.05-1.02-.05-1.49-.05-2.14.09-4.09.33-5.86.56-.51.09-1.12.19-1.63.33-10.6,2.05-19.62,7.67-25.57,15.85-.7.93-1.35,2.14-1.95,3.3-.65,1.16-1.3,2.37-1.86,3.02-.23.28-.56.46-1.3.46-3.3-.23-6.69-.19-10.04-.09-2.14-8.6-1.12-18.22,3.07-26.03,2.14-4,4.93-7.16,8.37-9.48.88-.6,1.72-1.07,2.56-1.58,3.63-2.09,7.39-4.18,6.6-11.11-.37-3.39-2.65-13.67-3.95-17.34-.14-.33-.19-.65-.28-.84-2.88-6.37-9.02-6.18-13.99-6l-.79.05c-1.16.05-2.28.09-3.39,0-9.2-.6-18.27-5.39-23.61-12.6-.74-1.02-1.39-2.09-1.95-3.16-1.72-2.98-3.44-6.04-7.67-7.34h-19.62c-1.67-3.67-3.81-7.11-6.55-10.13-1.53-1.72-3.25-3.3-5.11-4.69-.47-.46-1.07-.84-1.58-1.21-.51-.37-1.16-.7-1.81-1.02-.98-.51-2.56-1.3-2.88-1.95l.6-3.02c.7-3.72,1.44-7.53,2.37-11.16.05-.28.09-.56.19-.84.09-.51.37-1.58.6-1.86.05-.05.42-.33,2.18-.33.84,0,1.72.05,2.56.09.56.05,1.16.09,1.58.09.46.05.93.05,1.35.05,1.26,0,2.46-.09,3.67-.23,12.13-1.39,22.55-7.21,29.42-16.5.51-.7,1.16-1.91,1.91-3.16.6-1.16,1.53-2.88,1.86-3.21.33-.23.65-.28,1.49-.33l.46-.05c5.39-.47,11.2-.23,16.78-.05,5.16.19,10.51.33,15.53.05.65,0,1.16.14,1.44.42.51.7,1.16,1.91,1.86,3.11.6,1.16,1.26,2.32,1.91,3.21,6.69,9.3,17.2,15.15,29.52,16.5,1.25.14,2.56.23,3.9.23h1.07c.84-.05,1.95-.14,3.02-.23.74-.05,1.44-.05,2.09,0,.79.05,1.02.14,1.07.14.05.09.23.51.65,1.86.98,3.35,3.02,11.81,3.16,14.6.05.93-.56,1.39-2.51,2.37-.65.33-1.3.65-1.91,1.07-2.51,1.63-4.79,3.58-6.83,5.81-3.39,3.67-5.95,7.9-7.67,12.5-3.9,9.99-3.9,21.52,0,31.56,1.72,4.6,4.28,8.88,7.67,12.55,1.91,2.18,4.14,4.14,6.6,5.86.51.28,1.16.65,1.86,1.02.84.42,2.28,1.16,2.7,1.77-.28,1.44-.51,3.02-.84,4.6Z"/>
      </g>
      <g>
        <path class="st1" d="M408.56,447.11c-68.94-61.13-174.78-54.81-235.91,14.13-61.13,68.94-54.76,174.74,14.18,235.86,64.24,57.04,160.56,55.36,222.85-.93,4.51-4.14,8.88-8.51,13.02-13.2,4.14-4.69,8-9.53,11.48-14.55,48.48-68.56,38.63-164.32-25.61-221.31ZM418.51,676.51c-.42.56-.88,1.07-1.35,1.58-.98,1.12-2,2.18-2.98,3.3l-.23.23c-58.85,62.52-157.58,67.31-222.24,9.99-65.87-58.48-71.96-159.63-13.53-225.5,58.43-65.87,159.58-71.96,225.5-13.48,65.36,57.92,71.82,157.95,14.83,223.87Z"/>
        <path class="st1" d="M400.01,456.91c-30.68-27.19-70.15-40.81-111.01-38.4-40.91,2.46-78.37,20.69-105.57,51.37-27.19,30.68-40.86,70.05-38.4,111.01,2.46,40.91,20.69,78.37,51.37,105.57,28.31,25.15,64.06,38.68,101.57,38.68,3.11,0,6.28-.09,9.39-.28,40.91-2.46,78.42-20.69,105.61-51.37,25.85-29.15,38.58-65.5,38.58-101.71,0-42.39-17.43-84.6-51.55-114.86ZM409.68,670.56c-26.45,29.75-62.85,47.46-102.54,49.83-39.7,2.37-78-10.83-107.8-37.23-29.75-26.4-47.46-62.85-49.83-102.54-2.42-39.74,10.83-78,37.23-107.8,29.38-33.14,70.38-50.02,111.56-50.02,35.14,0,70.42,12.32,98.73,37.42,61.5,54.53,67.12,148.89,12.64,210.34Z"/>
        <path class="st1" d="M540.34,762.55l-106.17-94.13-4.74-4.23-10.92,12.32-4.32,4.88-.23.23-9.11,10.27,4.83,4.28,106.08,94.08c3.53,3.11,7.9,4.65,12.27,4.65,5.11,0,10.23-2.09,13.85-6.23,3.3-3.67,4.93-8.46,4.65-13.39-.28-4.93-2.51-9.44-6.18-12.74ZM535.23,782.82c-3.49,3.95-9.62,4.32-13.57.79l-104.26-92.46,12.78-14.41,104.26,92.46c1.91,1.72,3.07,4.04,3.21,6.65,0,.23.05.46.05.65,0,2.32-.88,4.56-2.46,6.32Z"/>
      </g>
    </g>
  </g>
</svg>